<?xml version="1.0" encoding="UTF-8"?>
<!DOCTYPE svg PUBLIC "-//W3C//DTD SVG 1.1//EN" "http://www.w3.org/Graphics/SVG/1.1/DTD/svg11.dtd">
<svg xmlns="http://www.w3.org/2000/svg" version="1.1" width="512px" height="512px" style="shape-rendering:geometricPrecision; text-rendering:geometricPrecision; image-rendering:optimizeQuality; fill-rule:evenodd; clip-rule:evenodd" xmlns:xlink="http://www.w3.org/1999/xlink">
<g><path style="opacity:0.985" fill="#000000" d="M 111.5,-0.5 C 207.5,-0.5 303.5,-0.5 399.5,-0.5C 461.839,11.8393 499.173,49.1726 511.5,111.5C 511.5,207.5 511.5,303.5 511.5,399.5C 499.167,461.833 461.833,499.167 399.5,511.5C 303.5,511.5 207.5,511.5 111.5,511.5C 49.1667,499.167 11.8333,461.833 -0.5,399.5C -0.5,303.5 -0.5,207.5 -0.5,111.5C 11.8274,49.1726 49.1607,11.8393 111.5,-0.5 Z M 120.5,42.5 C 210.501,42.3333 300.501,42.5 390.5,43C 424.249,47.0928 448.082,64.5928 462,95.5C 465.261,103.876 467.261,112.543 468,121.5C 468.667,210.833 468.667,300.167 468,389.5C 464.308,423.735 446.808,447.902 415.5,462C 407.431,465.101 399.098,467.101 390.5,468C 300.5,468.667 210.5,468.667 120.5,468C 86.7511,463.907 62.9178,446.407 49,415.5C 45.7393,407.124 43.7393,398.457 43,389.5C 42.02,297.477 42.3533,205.477 44,113.5C 53.6796,72.6496 79.1796,48.983 120.5,42.5 Z M 248.5,170.5 C 294.684,170.538 324.517,192.538 338,236.5C 344.547,272.199 333.714,301.366 305.5,324C 270.139,346.76 235.473,345.76 201.5,321C 172.253,293.844 164.086,261.344 177,223.5C 191.076,192.581 214.91,174.914 248.5,170.5 Z"/></g>
<g><path style="opacity:0.963" fill="#000000" d="M 387.5,84.5 C 414.309,83.8082 427.142,96.8082 426,123.5C 418.599,145.12 403.765,152.953 381.5,147C 365.229,138.623 359.062,125.456 363,107.5C 367.059,95.3984 375.226,87.7317 387.5,84.5 Z"/></g>
<g><path style="opacity:0.974" fill="#000000" d="M 239.5,127.5 C 285.736,123.739 324.236,139.072 355,173.5C 385.405,213.939 391.738,257.939 374,305.5C 346.746,361.389 301.913,387.223 239.5,383C 189.347,374.841 154.513,347.341 135,300.5C 117.464,244.125 130.298,195.958 173.5,156C 193.066,140.713 215.066,131.213 239.5,127.5 Z M 248.5,170.5 C 214.91,174.914 191.076,192.581 177,223.5C 164.086,261.344 172.253,293.844 201.5,321C 235.473,345.76 270.139,346.76 305.5,324C 333.714,301.366 344.547,272.199 338,236.5C 324.517,192.538 294.684,170.538 248.5,170.5 Z"/></g>
</svg>
