<?xml version="1.0" encoding="UTF-8"?>
<!DOCTYPE svg PUBLIC "-//W3C//DTD SVG 1.1//EN" "http://www.w3.org/Graphics/SVG/1.1/DTD/svg11.dtd">
<svg xmlns="http://www.w3.org/2000/svg" version="1.1" width="70px" height="32px" style="shape-rendering:geometricPrecision; text-rendering:geometricPrecision; image-rendering:optimizeQuality; fill-rule:evenodd; clip-rule:evenodd" xmlns:xlink="http://www.w3.org/1999/xlink">
<g><path style="opacity:0.644" fill="#000000" d="M 18.5,-0.5 C 22.5,-0.5 26.5,-0.5 30.5,-0.5C 30.5,0.5 30.5,1.5 30.5,2.5C 31.5,2.5 32.5,2.5 33.5,2.5C 33.5,1.5 33.5,0.5 33.5,-0.5C 37.1667,-0.5 40.8333,-0.5 44.5,-0.5C 43.4107,1.11709 41.744,1.95042 39.5,2C 40.7932,2.49001 42.1266,2.65668 43.5,2.5C 43.5,3.5 43.5,4.5 43.5,5.5C 42.0222,5.23798 40.6888,5.57131 39.5,6.5C 41.0453,7.45189 42.712,7.78522 44.5,7.5C 44.5,12.8333 44.5,18.1667 44.5,23.5C 38.8333,23.6636 38.5,23.9969 43.5,24.5C 43.5,25.5 43.5,26.5 43.5,27.5C 38.5,28.0031 38.8333,28.3364 44.5,28.5C 44.5,29.5 44.5,30.5 44.5,31.5C 41.8333,31.5 39.1667,31.5 36.5,31.5C 36.1667,28.8333 35.8333,28.8333 35.5,31.5C 31.8333,31.5 28.1667,31.5 24.5,31.5C 23.5,28.8333 22.5,28.8333 21.5,31.5C 20.1667,31.5 18.8333,31.5 17.5,31.5C 18.2341,30.2921 18.5674,28.9587 18.5,27.5C 17.5,27.5 16.5,27.5 15.5,27.5C 15.5,28.8333 15.5,30.1667 15.5,31.5C 14.5,31.5 13.5,31.5 12.5,31.5C 12.5,27.8333 12.5,24.1667 12.5,20.5C 9.93793,19.82 7.27126,19.6533 4.5,20C 3.53986,18.5806 2.70653,17.0806 2,15.5C 1.95042,17.744 1.11709,19.4107 -0.5,20.5C -0.5,16.8333 -0.5,13.1667 -0.5,9.5C 0.675044,9.28099 1.67504,9.61432 2.5,10.5C 4.62349,15.8446 5.95683,15.5113 6.5,9.5C 7.84794,11.4613 9.18128,11.6279 10.5,10C 13.6799,8.96388 16.1799,9.79722 18,12.5C 18.4828,11.552 18.6495,10.552 18.5,9.5C 19.5,9.5 20.5,9.5 21.5,9.5C 21.5,6.83333 21.5,4.16667 21.5,1.5C 19.8212,1.71481 18.8212,1.04814 18.5,-0.5 Z M 24.5,1.5 C 25.5,1.5 26.5,1.5 27.5,1.5C 27.6641,4.1873 27.4974,6.85397 27,9.5C 26.586,9.95735 26.086,10.2907 25.5,10.5C 24.5159,7.57186 24.1826,4.57186 24.5,1.5 Z M 30.5,5.5 C 31.5,5.5 32.5,5.5 33.5,5.5C 33.5,6.83333 33.5,8.16667 33.5,9.5C 32.5,9.5 31.5,9.5 30.5,9.5C 30.5,8.16667 30.5,6.83333 30.5,5.5 Z M 38.5,9.5 C 39.5,9.5 40.5,9.5 41.5,9.5C 41.5,10.8333 41.5,12.1667 41.5,13.5C 40.5,13.5 39.5,13.5 38.5,13.5C 38.5,12.1667 38.5,10.8333 38.5,9.5 Z M 11.5,12.5 C 16.1453,13.2801 16.6453,15.2801 13,18.5C 11.6814,16.7505 11.1814,14.7505 11.5,12.5 Z M 21.5,12.5 C 23.337,12.6395 23.6704,13.3061 22.5,14.5C 21.7025,14.0431 21.3691,13.3764 21.5,12.5 Z M 24.5,20.5 C 25.5,20.5 26.5,20.5 27.5,20.5C 27.6427,18.7376 27.3094,17.0709 26.5,15.5C 26.9186,14.3279 27.5853,13.3279 28.5,12.5C 30.2279,16.9876 29.5612,20.9876 26.5,24.5C 25.6376,23.2342 24.9709,21.9008 24.5,20.5 Z M 32.5,12.5 C 33.5,12.5 34.5,12.5 35.5,12.5C 35.5168,15.9205 35.6835,19.2538 36,22.5C 33.0122,19.9193 31.8456,16.586 32.5,12.5 Z M 24.5,20.5 C 23.5,20.5 22.5,20.5 21.5,20.5C 22.0593,15.3607 23.0593,15.3607 24.5,20.5 Z M 38.5,16.5 C 39.5,16.5 40.5,16.5 41.5,16.5C 41.5,17.8333 41.5,19.1667 41.5,20.5C 40.5,20.5 39.5,20.5 38.5,20.5C 38.5,19.1667 38.5,17.8333 38.5,16.5 Z M 17.5,18.5 C 18.7733,19.0768 18.7733,19.7435 17.5,20.5C 16.537,20.0302 16.537,19.3635 17.5,18.5 Z M 15.5,24.5 C 17.0348,23.2121 18.7015,23.2121 20.5,24.5C 19.1125,24.8072 17.4458,24.8072 15.5,24.5 Z M 30.5,23.5 C 32.711,23.9668 34.711,24.9668 36.5,26.5C 32.0024,31.0262 30.0024,30.0262 30.5,23.5 Z"/></g>
<g><path style="opacity:0.882" fill="#000000" d="M 45.5,-0.5 C 48.1667,-0.5 50.8333,-0.5 53.5,-0.5C 61.7841,3.44283 67.1175,9.77617 69.5,18.5C 69.5,22.8333 69.5,27.1667 69.5,31.5C 61.5,31.5 53.5,31.5 45.5,31.5C 45.5,20.8333 45.5,10.1667 45.5,-0.5 Z"/></g>
</svg>
