<?xml version="1.0" encoding="UTF-8"?>
<!DOCTYPE svg PUBLIC "-//W3C//DTD SVG 1.1//EN" "http://www.w3.org/Graphics/SVG/1.1/DTD/svg11.dtd">
<svg xmlns="http://www.w3.org/2000/svg" version="1.1" width="512px" height="512px" style="shape-rendering:geometricPrecision; text-rendering:geometricPrecision; image-rendering:optimizeQuality; fill-rule:evenodd; clip-rule:evenodd" xmlns:xlink="http://www.w3.org/1999/xlink">
<g><path style="opacity:0.986" fill="#000000" d="M 241.5,31.5 C 288.571,27.776 322.738,46.776 344,88.5C 349.514,100.92 352.014,113.92 351.5,127.5C 365.504,127.333 379.504,127.5 393.5,128C 411.726,132.559 423.892,143.725 430,161.5C 431.156,203.955 431.656,246.455 431.5,289C 431.333,330.167 431.167,371.333 431,412.5C 425.649,441.519 409.482,462.019 382.5,474C 376.668,476.277 370.668,477.944 364.5,479C 291.833,479.667 219.167,479.667 146.5,479C 114.009,472.176 92.5085,453.009 82,421.5C 81.2057,418.529 80.539,415.529 80,412.5C 79.8333,371.333 79.6667,330.167 79.5,289C 79.344,246.455 79.844,203.955 81,161.5C 87.1076,143.725 99.2743,132.559 117.5,128C 131.496,127.5 145.496,127.333 159.5,127.5C 161.017,84.1592 181.684,53.9925 221.5,37C 228.208,34.8261 234.875,32.9927 241.5,31.5 Z M 254.5,63.5 C 286.017,65.667 306.851,81.667 317,111.5C 318.191,116.767 318.691,122.101 318.5,127.5C 276.5,127.5 234.5,127.5 192.5,127.5C 194.048,96.2488 209.714,75.7488 239.5,66C 244.643,65.1617 249.643,64.3284 254.5,63.5 Z M 127.5,159.5 C 138.167,159.5 148.833,159.5 159.5,159.5C 159.333,172.171 159.5,184.838 160,197.5C 162.807,204.487 167.973,207.82 175.5,207.5C 183.027,207.82 188.193,204.487 191,197.5C 191.5,184.838 191.667,172.171 191.5,159.5C 234.167,159.5 276.833,159.5 319.5,159.5C 319.333,172.171 319.5,184.838 320,197.5C 322.807,204.487 327.973,207.82 335.5,207.5C 343.027,207.82 348.193,204.487 351,197.5C 351.5,184.838 351.667,172.171 351.5,159.5C 363.886,159.106 376.22,159.606 388.5,161C 395.053,163.601 398.553,168.434 399,175.5C 399.667,250.167 399.667,324.833 399,399.5C 397.214,423.621 384.714,439.121 361.5,446C 326.188,447.132 290.854,447.632 255.5,447.5C 220.477,447.635 185.477,447.135 150.5,446C 126.729,439.562 113.896,424.062 112,399.5C 111.333,324.833 111.333,250.167 112,175.5C 113.346,166.322 118.513,160.989 127.5,159.5 Z"/></g>
</svg>
